<?xml version="1.0" standalone="no"?>
<!DOCTYPE svg PUBLIC "-//W3C//DTD SVG 20010904//EN"
 "http://www.w3.org/TR/2001/REC-SVG-20010904/DTD/svg10.dtd">
<svg version="1.0" xmlns="http://www.w3.org/2000/svg"
 width="50.000000pt" height="50.000000pt" viewBox="0 0 50.000000 50.000000"
 preserveAspectRatio="xMidYMid meet">
<metadata>
Created by potrace 1.16, written by Peter Selinger 2001-2019
</metadata>
<g transform="translate(0.000000,50.000000) scale(0.100000,-0.100000)"
fill="#000000" stroke="none">
<path d="M165 392 l-150 -77 0 -35 c0 -29 4 -36 23 -38 22 -3 30 12 12 23 -16
10 -12 23 10 35 19 10 20 8 20 -85 l0 -95 -30 0 c-29 0 -30 -2 -30 -45 l0 -45
85 0 c84 0 87 1 205 60 67 34 133 60 150 60 16 0 30 5 30 10 0 6 -23 10 -50
10 -41 0 -71 -11 -170 -60 -103 -52 -127 -60 -175 -60 -52 0 -55 1 -55 25 0
24 2 25 65 25 l65 0 0 30 0 30 60 0 60 0 0 30 0 30 100 0 c60 0 100 4 100 10
0 6 -7 10 -15 10 -12 0 -15 17 -15 95 0 57 -4 95 -10 95 -6 0 -10 -38 -10 -95
l0 -95 -49 0 -50 0 -3 100 c-2 76 0 101 10 105 8 3 43 5 78 5 36 0 64 4 64 10
0 6 -36 10 -87 10 l-88 -1 -150 -77z m155 -57 c0 -95 0 -95 -25 -95 -21 0 -25
-5 -25 -30 0 -25 -4 -30 -25 -30 -24 0 -24 1 -27 98 l-3 97 50 27 c28 15 51
27 53 28 1 0 2 -43 2 -95z m-120 -60 c0 -95 0 -95 -25 -95 -21 0 -25 -5 -25
-30 0 -25 -4 -30 -25 -30 -24 0 -24 1 -27 98 l-3 97 50 27 c28 15 51 27 53 28
1 0 2 -43 2 -95z"/>
</g>
</svg>
